<svg width="150" height="150" viewBox="0 0 150 150" fill="none" xmlns="http://www.w3.org/2000/svg">
<g clip-path="url(#clip0_1406_435)">
<rect width="150" height="150" fill="white"/>
<path d="M92.5334 108.56C92.5737 108.787 92.3647 109 92.0715 109.059C91.5729 109.154 90.5464 109.26 90.5464 109.26L76.0474 109.524L59.4551 109.546C59.4551 109.546 58.8135 109.528 58.4066 109.304C58.2379 109.212 58.2343 109.077 58.2233 108.85C58.2123 108.542 58.2563 108.094 58.5752 107.915C59.0518 107.647 59.4514 107.684 59.9316 107.654C62.2815 107.511 74.46 107.332 75.1859 107.346C78.0527 107.398 84.8604 107.346 87.5916 107.346C90.3228 107.346 91.5766 107.651 91.7965 107.731C92.2291 107.889 92.4711 108.212 92.5297 108.56H92.5334Z" fill="#282D30"/>
<path d="M47.7862 99.1873C47.4233 99.191 47.0604 99.0517 46.7891 98.7658C45.8689 97.8016 47.6652 97.369 49.073 97.2224C51.9251 96.9218 100.39 96.9731 103.07 97.622C103.671 97.7686 103.421 98.5751 103.139 98.7108C102.325 99.0957 101.218 99.169 100.25 99.202C96.6833 99.3303 53.4392 99.1287 47.7899 99.191L47.7862 99.1873Z" fill="#282D30"/>
<path d="M164.424 87.195C163.903 86.7624 136.496 86.7038 106.49 86.7624C111.263 78.2793 112.77 67.7762 108.961 56.9615C103.674 41.9565 87.83 32.4726 72.0002 34.2029C45.9606 37.0514 31.9784 66.0642 43.1414 86.9897C43.8123 86.9897 44.5052 86.9824 45.209 86.9787C37.8294 73.8434 39.6734 55.8983 52.992 44.5374C57.7358 39.9512 66.0649 35.9626 71.135 35.6437C105.533 33.4844 115.956 65.9175 104.705 86.7661C69.8556 86.8394 32.1691 87.063 29.3426 87.0447C20.3902 86.9824 11.3755 86.8431 2.42313 86.8541C-2.372 86.8614 -7.65837 86.6891 -12.4058 86.9274C-12.9264 86.953 -14.2095 87.0337 -14.6164 87.2353C-15.126 87.4846 -15.1297 88.0015 -14.6164 88.2545C-13.7549 88.6797 -11.6543 88.5148 -10.6425 88.5514C0.27119 88.973 11.2839 88.7347 22.2305 88.7677C29.7202 88.7897 156.461 89.0683 163.925 88.8814C165.029 88.8557 165.428 87.6972 164.424 87.1987V87.195Z" fill="#282D30"/>
</g>
<defs>
<clipPath id="clip0_1406_435">
<rect width="150" height="150" fill="white"/>
</clipPath>
</defs>
</svg>
