<svg width="150" height="150" viewBox="0 0 150 150" fill="none" xmlns="http://www.w3.org/2000/svg">
<rect width="150" height="150" fill="white"/>
<path d="M88.6371 103.917C88.6685 104.094 88.5059 104.26 88.2778 104.305C87.8901 104.379 87.0917 104.462 87.0917 104.462L75.8147 104.667L62.9095 104.684C62.9095 104.684 62.4105 104.67 62.094 104.496C61.9629 104.425 61.96 104.32 61.9515 104.143C61.9429 103.903 61.9771 103.555 62.2252 103.416C62.5959 103.207 62.9067 103.236 63.2802 103.213C65.1079 103.102 74.58 102.962 75.1446 102.974C77.3743 103.014 82.6693 102.974 84.7935 102.974C86.9177 102.974 87.8929 103.21 88.064 103.273C88.4004 103.396 88.5886 103.647 88.6343 103.917H88.6371Z" fill="#282D30"/>
<path d="M53.8337 96.6351C53.5514 96.638 53.2691 96.5296 53.0581 96.3072C52.3425 95.5573 53.7396 95.2208 54.8345 95.1068C57.0529 94.873 94.7475 94.9129 96.8318 95.4176C97.2994 95.5316 97.1056 96.1589 96.886 96.2644C96.253 96.5638 95.3919 96.6208 94.6391 96.6465C91.8648 96.7463 58.2305 96.5895 53.8366 96.638L53.8337 96.6351Z" fill="#282D30"/>
<path d="M144.552 87.3739C144.147 87.0374 122.83 86.9918 99.4922 87.0374C103.205 80.4394 104.376 72.2704 101.414 63.8589C97.3023 52.1884 84.9789 44.812 72.6668 46.1578C52.4138 48.3733 41.5388 70.9388 50.2211 87.2142C50.7429 87.2142 51.2818 87.2085 51.8293 87.2057C46.0895 76.9893 47.5237 63.032 57.8826 54.1958C61.5723 50.6287 68.0505 47.5265 71.9939 47.2784C98.748 45.599 106.854 70.8247 98.1036 87.0403C70.9988 87.0973 41.6871 87.2712 39.4887 87.257C32.5257 87.2085 25.5143 87.1002 18.5513 87.1087C14.8218 87.1144 10.7102 86.9804 7.01768 87.1657C6.61279 87.1857 5.61482 87.2484 5.29832 87.4052C4.90199 87.5991 4.89913 88.0012 5.29832 88.1979C5.96839 88.5287 7.6022 88.4004 8.38917 88.4289C16.8776 88.7568 25.443 88.5714 33.9571 88.5971C39.7824 88.6142 138.359 88.8309 144.164 88.6855C145.022 88.6655 145.333 87.7645 144.552 87.3767V87.3739Z" fill="#282D30"/>
</svg>
