<svg width="600" height="10" viewBox="0 0 600 10" fill="none" xmlns="http://www.w3.org/2000/svg">
<g clip-path="url(#clip0_1438_462)">
<path d="M450.578 0C466.952 0 491.75 2.2396 518.723 4.47852C545.703 6.718 574.868 8.95703 600 8.95703V10C574.848 10 545.665 7.76084 518.687 5.52148C491.701 3.28157 466.929 1.04297 450.578 1.04297C434.227 1.043 409.166 3.28158 381.892 5.52148C354.624 7.76083 325.152 10 300 10C274.848 10 245.665 7.76084 218.687 5.52148C191.701 3.28157 166.929 1.04297 150.578 1.04297C134.227 1.043 109.166 3.28158 81.8916 5.52148C54.6242 7.76083 25.1522 10 0 10V8.95703C25.1321 8.95703 54.5872 6.71801 81.8564 4.47852C109.118 2.23962 134.204 2.76313e-05 150.578 0C166.952 0 191.75 2.2396 218.723 4.47852C245.703 6.718 274.868 8.95703 300 8.95703C325.132 8.95703 354.587 6.71801 381.856 4.47852C409.118 2.23962 434.204 2.76313e-05 450.578 0Z" fill="#96B7C0"/>
</g>
<defs>
<clipPath id="clip0_1438_462">
<rect width="600" height="10" fill="white"/>
</clipPath>
</defs>
</svg>
