<svg width="612" height="6" viewBox="0 0 612 6" fill="none" xmlns="http://www.w3.org/2000/svg">
<g clip-path="url(#clip0_1125_514)">
<path d="M459.59 0C476.291 0 501.584 1.34415 529.097 2.6875C556.616 4.0312 586.365 5.37402 612 5.37402V6C586.345 6 556.578 4.65611 529.061 3.3125C501.536 1.96854 476.268 0.625977 459.59 0.625977C442.911 0.625985 417.349 1.96855 389.529 3.3125C361.717 4.65611 331.655 6 306 6C280.345 6 250.578 4.65611 223.061 3.3125C195.536 1.96854 170.268 0.625977 153.59 0.625977C136.911 0.625985 111.349 1.96855 83.5293 3.3125C55.7165 4.65611 25.6552 6 0 6V5.37402C25.6347 5.37402 55.6785 4.0312 83.4932 2.6875C111.301 1.34415 136.888 8.18825e-06 153.59 0C170.291 0 195.584 1.34415 223.097 2.6875C250.616 4.0312 280.365 5.37402 306 5.37402C331.635 5.37402 361.679 4.0312 389.493 2.6875C417.301 1.34415 442.888 8.18825e-06 459.59 0Z" fill="#96B7C0"/>
</g>
<defs>
<clipPath id="clip0_1125_514">
<rect width="612" height="6" fill="white"/>
</clipPath>
</defs>
</svg>
