<svg width="100" height="240" viewBox="0 0 100 240" fill="none" xmlns="http://www.w3.org/2000/svg">
<path d="M64.7763 35.887C64.7763 36.877 65.2563 37.617 65.2563 39.117C65.2563 40.457 64.6163 41.097 63.6263 41.097C62.6363 41.097 62.4063 40.237 62.4063 39.657C62.4063 39.077 62.6663 37.7971 62.4063 36.997C62.0563 35.907 61.4463 35.5271 60.6463 34.7871C60.1363 34.3671 60.5863 33.6971 61.1263 33.887C61.5463 34.017 62.1863 34.267 62.5363 34.397C62.8863 34.497 63.0163 34.3971 63.3063 33.9471C63.9163 32.9871 65.0363 30.7771 65.6063 29.7871C66.0263 29.0871 66.9463 29.407 66.7263 30.237C66.1863 32.157 64.7763 34.977 64.7763 35.867V35.887ZM61.6063 21.807C63.4963 22.0271 65.4463 22.797 65.7663 24.337C65.9563 25.2371 65.5063 25.937 64.6163 26.127C63.7863 26.287 63.2763 25.5471 62.5963 24.6571C62.1163 24.0771 61.5363 23.4771 60.9963 22.9571C60.4563 22.4471 60.6463 21.7071 61.6063 21.807ZM63.5263 15.1171C63.0163 14.5771 63.2363 13.8671 64.1663 13.9971C66.0263 14.2571 67.9763 15.1471 68.2663 16.6871C68.4263 17.5871 67.9463 18.2571 67.0863 18.4171C66.2263 18.5771 65.8063 17.8371 65.1063 16.9171C64.6563 16.2771 64.0463 15.6671 63.5363 15.1271L63.5263 15.1171ZM83.9463 25.897C84.4263 25.317 85.0363 24.7771 85.3263 24.7771C85.8063 24.7771 87.6663 26.3771 87.6663 27.1171C87.6663 27.4971 87.2463 27.7571 86.4163 27.9771C85.2663 30.8871 83.7563 33.357 81.8063 35.397C84.0463 37.097 86.7963 38.1771 89.9963 38.6271C91.0863 38.7871 90.8263 39.367 90.1263 39.647C89.2263 39.997 88.9463 40.287 88.6863 40.667C88.3363 41.177 88.1063 41.4671 87.1163 41.177C84.3363 40.4771 81.9363 39.0371 80.0163 37.017C77.3563 39.1571 74.0363 40.6971 69.7763 41.7171C68.8463 41.937 68.5563 40.887 69.4863 40.597C73.3263 39.317 76.3363 37.717 78.6963 35.507C76.9663 33.207 75.6863 30.357 75.0163 27.1571H72.9963C72.7363 31.987 71.6563 37.617 66.8563 41.297C66.0863 41.877 65.3163 41.237 66.0263 40.437C69.2863 36.567 70.6063 32.8171 70.7263 25.7471C70.7563 23.0871 70.7263 20.2771 70.5363 17.6871C70.4763 17.1771 70.6663 17.0171 71.0763 17.0771C71.6163 17.2071 72.9963 17.8171 73.7363 18.3871H78.0263C77.9663 16.2771 77.8963 14.4171 77.7663 13.4271C77.7363 13.1371 77.9263 12.9771 78.2163 12.9771C78.7563 12.9771 81.9263 13.0771 81.9263 13.9071C81.9263 14.6071 81.2263 14.8671 80.2263 15.0871V18.3871H85.7663C86.3463 17.7171 87.1063 16.9471 87.4963 16.9471C88.0363 16.9471 90.0863 18.6471 90.0863 19.6371C90.0563 20.2171 89.2863 20.3771 88.3863 20.6571C87.3963 21.5871 86.4063 22.5171 85.5663 23.1171C84.8963 23.6271 84.1863 23.087 84.6063 22.377C85.1863 21.4471 85.6663 20.4871 86.0163 19.6571H80.2263V25.8671H83.9363L83.9463 25.897ZM78.0263 25.897C78.0563 24.1371 78.0563 21.8671 78.0263 19.6871H73.1963C73.2263 21.7071 73.1663 23.6271 73.0663 25.897H78.0263ZM76.2363 27.177C77.0663 29.837 78.3763 32.137 80.2063 33.957C81.7463 32.097 82.9863 29.897 83.9463 27.177H76.2363Z" fill="#282D30"/>
<path d="M72.1063 61.677C73.5763 61.677 75.3663 62.577 75.3663 64.137C75.3663 65.317 74.3463 68.837 74.3463 70.887C74.3463 72.167 74.6363 72.837 75.5663 72.807C76.4963 72.777 77.1663 72.007 78.7663 71.977C80.0763 71.947 81.2263 72.517 81.2263 73.317C81.2263 74.307 80.0463 74.787 78.4063 74.917C77.5763 74.977 76.2663 75.017 75.2363 75.107C72.5763 75.367 70.4063 77.507 70.5363 80.387C70.6663 83.397 73.0363 83.877 75.8463 83.877C78.2463 83.877 79.9763 83.107 81.1563 83.107C82.2463 83.107 83.0463 83.587 83.0463 84.287C83.0463 85.887 79.3663 86.397 75.8463 86.397C72.7463 86.397 68.6163 85.277 68.4863 81.247C68.3863 77.667 70.2463 75.327 73.5063 73.757C72.7663 72.857 72.3563 72.347 72.3563 71.007C72.3563 69.507 72.5163 66.367 72.5163 65.147C72.5163 64.187 72.3563 63.807 71.8163 63.447C71.1463 63.027 70.6363 62.867 70.6363 62.457C70.6363 62.007 71.4663 61.657 72.1063 61.657V61.677Z" fill="#282D30"/>
<path d="M66.6364 126.477C67.7864 126.057 68.8764 125.647 69.8664 125.227C70.9864 124.807 71.3664 125.577 70.4064 126.287C68.2664 127.787 65.3464 129.037 62.6964 130.127C62.5664 130.957 62.3164 131.727 61.7664 131.727C61.0964 131.727 60.6764 130.477 60.4564 128.817C60.4264 128.527 60.5564 128.397 60.8064 128.367C62.0864 128.017 63.3064 127.627 64.4564 127.247V119.187H61.6764C61.2564 119.187 60.9764 119.057 60.9764 118.547C60.9764 118.067 61.2664 117.907 61.6764 117.907H64.4564V110.607H61.4164C60.9964 110.607 60.7164 110.477 60.7164 109.967C60.7164 109.487 61.0064 109.327 61.4164 109.327H66.7564C67.3364 108.497 68.0064 107.597 68.3864 107.597C68.9664 107.597 70.7264 109.327 70.7564 109.967C70.7564 110.417 70.1764 110.607 69.4164 110.607H67.2364C67.1764 110.867 66.9764 111.027 66.6264 111.187V117.907H67.0464C67.5864 117.077 68.1964 116.277 68.5464 116.277C69.0864 116.277 70.6564 117.977 70.6564 118.577C70.6564 119.027 70.1164 119.187 69.5064 119.187H66.6264V126.487L66.6364 126.477ZM76.4564 112.787C76.9064 112.177 77.5164 111.537 77.8664 111.537C78.5364 111.537 80.1664 112.877 80.1664 113.517C80.1664 113.897 79.7164 114.257 79.2064 114.507C79.2364 117.707 79.0464 127.847 78.4064 130.757C77.8664 133.477 76.4564 134.377 74.8564 134.377C74.3464 134.377 74.1864 134.117 73.9564 133.577C73.7364 133.097 73.4764 132.877 72.8664 132.717C72.0964 132.527 72.2564 131.757 72.8964 131.817C73.4064 131.847 74.3664 131.917 74.7564 131.917C75.3664 131.917 75.8464 131.817 76.1964 130.447C76.9664 127.857 77.2564 117.867 76.9664 114.067H74.6664C74.6364 115.857 74.6064 117.617 74.5064 119.317C74.2864 124.337 73.4864 130.737 67.1764 134.927C66.4064 135.437 65.7064 134.797 66.4364 134.067C70.5964 130.037 72.0964 126.607 72.3864 118.457C72.4164 117.177 72.4464 115.677 72.4464 114.077H69.3064C68.8864 114.077 68.6064 113.947 68.6064 113.437C68.6064 112.957 68.8964 112.797 69.3064 112.797H72.4064C72.3764 111.007 72.2764 109.177 72.1164 107.547C72.0864 107.197 72.2464 107.037 72.5664 107.037C73.4964 107.067 76.0564 107.327 76.0264 108.057C76.0264 108.537 75.4164 108.727 74.6464 108.857V112.797H76.4364L76.4564 112.787ZM85.7664 110.927C86.2164 110.287 86.8264 109.587 87.1764 109.587C87.7864 109.587 89.6364 110.967 89.6364 111.667C89.6364 112.087 89.0964 112.367 88.5464 112.627C88.3564 116.527 88.6464 129.747 88.6464 131.887C88.6464 132.877 88.1064 133.107 87.2364 133.107C86.4964 133.107 86.2764 132.527 86.2764 132.017V130.677H83.1064V132.977C83.1064 133.677 82.6564 134.067 81.6964 134.067C81.1164 134.067 80.8664 133.747 80.8664 133.137C80.8664 129.557 81.2164 114.647 80.7364 110.227C80.7064 110.007 80.9264 109.777 81.1864 109.807C81.6364 109.837 83.1364 110.387 83.8064 110.927H85.7564H85.7664ZM86.3164 129.387C86.3464 124.647 86.4164 115.087 86.3764 112.207H83.1764C83.0464 114.257 83.0464 120.427 83.0464 121.647C83.0464 122.447 83.0764 126.347 83.0764 129.387H86.3064H86.3164Z" fill="#282D30"/>
<path d="M67.0164 172.237C68.2364 171.787 69.3564 171.337 70.4064 170.927C71.5264 170.507 71.9064 171.307 70.9164 171.987C68.6464 173.527 65.6064 174.807 62.4964 175.987C62.3664 176.787 62.1164 177.557 61.5664 177.557C60.8964 177.557 60.4464 176.307 60.2264 174.647C60.1964 174.357 60.3264 174.227 60.5764 174.197C62.0764 173.817 63.5164 173.397 64.8364 172.977V165.837H61.7664C61.3464 165.837 61.0664 165.707 61.0664 165.197C61.0664 164.717 61.3564 164.557 61.7664 164.557H64.8364V158.157H61.4164C60.9964 158.157 60.7164 158.027 60.7164 157.517C60.7164 157.037 61.0064 156.877 61.4164 156.877H68.1364C68.7164 156.047 69.3864 155.147 69.7964 155.147C70.3364 155.147 72.1364 156.877 72.1664 157.517C72.1664 157.967 71.5864 158.157 70.7864 158.157H67.6164C67.6164 158.447 67.4264 158.667 67.0064 158.827V164.557H67.9664C68.4764 163.757 69.0864 162.987 69.4064 162.987C69.9464 162.987 71.4864 164.617 71.4864 165.227C71.4864 165.677 70.9464 165.837 70.3364 165.837H67.0064V172.237H67.0164ZM76.0764 160.267C76.0164 158.347 75.9164 156.487 75.7564 155.117C75.6964 154.767 75.8864 154.577 76.2664 154.577C77.8364 154.577 79.8164 154.837 79.8164 155.597C79.8164 156.077 79.1764 156.397 78.3464 156.557C78.3764 159.917 78.3464 164.367 78.3164 168.687C78.2564 176.237 76.5564 180.047 67.8164 182.637C66.9164 182.897 66.4064 181.897 67.3964 181.517C72.5764 179.277 74.9164 177.007 75.7464 173.097C74.2064 173.997 72.4164 174.757 71.2664 175.367C71.1664 176.197 70.8864 177.027 70.3364 177.027C69.6664 177.027 69.1864 175.907 68.8964 174.207C68.8664 173.917 68.9964 173.787 69.2464 173.757C71.6164 172.987 74.1464 172.157 75.9964 171.457C76.0964 170.597 76.1564 169.637 76.1564 168.607V167.707H71.4164C70.9964 167.707 70.7164 167.577 70.7164 167.067C70.7164 166.587 71.0064 166.427 71.4164 166.427H76.1564C76.1564 164.927 76.1264 163.227 76.0964 161.527H71.1664C70.7464 161.527 70.4664 161.397 70.4664 160.887C70.4664 160.407 70.7564 160.247 71.1664 160.247H76.0664L76.0764 160.267ZM86.0864 173.297C86.7264 172.397 87.4664 171.377 87.9064 171.347C88.5164 171.377 90.6264 173.167 90.6564 173.907C90.6564 174.357 90.0464 174.577 89.0264 174.577H83.2664C83.2964 177.677 83.3264 180.847 83.3264 181.557C83.3264 182.267 82.8764 182.677 81.8564 182.677C81.2464 182.677 80.8964 182.327 80.8964 181.717C80.8964 180.307 81.1864 171.097 81.1864 168.827C81.1864 167.417 81.3164 158.237 80.7664 155.067C80.7364 154.777 80.8964 154.617 81.1864 154.617C83.2364 154.617 84.9264 154.807 84.9264 155.577C84.9264 156.117 84.2564 156.477 83.2664 156.667C83.2364 157.407 83.2364 158.777 83.2364 160.347H85.7664C86.3764 159.487 87.1464 158.487 87.5564 158.487C88.1364 158.487 90.1764 160.247 90.1764 160.947C90.2064 161.397 89.5964 161.617 88.6064 161.617H83.1964V166.517H85.6964C86.3064 165.617 87.0064 164.657 87.4564 164.657C88.0364 164.657 89.9864 166.447 90.0164 167.117C90.0164 167.567 89.4064 167.787 88.5164 167.787H83.2064V168.167C83.2064 169.027 83.2364 171.047 83.2364 173.287H86.0864V173.297Z" fill="#282D30"/>
<path d="M72.1063 202.577C73.5763 202.577 75.3663 203.477 75.3663 205.037C75.3663 206.217 74.3463 209.737 74.3463 211.787C74.3463 213.067 74.6363 213.737 75.5663 213.707C76.4963 213.677 77.1663 212.907 78.7663 212.877C80.0763 212.847 81.2263 213.417 81.2263 214.217C81.2263 215.207 80.0463 215.687 78.4063 215.817C77.5763 215.877 76.2663 215.917 75.2363 216.007C72.5763 216.267 70.4063 218.407 70.5363 221.287C70.6663 224.297 73.0363 224.777 75.8463 224.777C78.2463 224.777 79.9763 224.007 81.1563 224.007C82.2463 224.007 83.0463 224.487 83.0463 225.187C83.0463 226.787 79.3663 227.297 75.8463 227.297C72.7463 227.297 68.6163 226.177 68.4863 222.147C68.3863 218.567 70.2463 216.227 73.5063 214.657C72.7663 213.757 72.3563 213.247 72.3563 211.907C72.3563 210.407 72.5163 207.267 72.5163 206.047C72.5163 205.087 72.3563 204.707 71.8163 204.347C71.1463 203.927 70.6363 203.767 70.6363 203.357C70.6363 202.907 71.4663 202.557 72.1063 202.557V202.577Z" fill="#282D30"/>
<path d="M19.4964 23.577C20.0364 22.777 20.7164 21.917 21.0964 21.877C21.6364 21.907 23.4964 23.577 23.5264 24.217C23.5264 24.667 23.0164 24.857 22.0864 24.857H9.96636C9.54636 24.857 9.26636 24.727 9.26636 24.217C9.26636 23.737 9.55636 23.577 9.96636 23.577H15.1764V21.077H11.0464C10.6264 21.077 10.3464 20.947 10.3464 20.437C10.3464 19.957 10.6364 19.797 11.0464 19.797H15.1764C15.1764 18.997 15.1464 18.197 15.1464 17.427H10.1564C9.73636 17.427 9.45636 17.297 9.45636 16.787C9.45636 16.307 9.74636 16.147 10.1564 16.147H15.1164C15.0864 15.027 15.0164 14.067 14.9564 13.457C14.9264 13.167 15.1164 13.007 15.4064 13.007C15.9464 13.007 18.9264 13.107 18.9264 13.937C18.9264 14.577 18.2564 14.837 17.2664 15.027V16.147H19.0564C19.6364 15.317 20.3064 14.417 20.7164 14.417C21.2564 14.417 23.1764 16.117 23.1764 16.787C23.1764 17.237 22.6664 17.427 21.7364 17.427H17.2564V19.797H18.6664C19.2064 19.027 19.8164 18.227 20.1664 18.227C20.7064 18.227 22.5064 19.857 22.5064 20.467C22.5064 20.917 22.0264 21.077 21.1664 21.077H17.2664V23.577H19.5064H19.4964ZM33.3864 21.947C33.7664 21.407 34.2464 20.857 34.5664 20.857C35.1464 20.857 36.8664 22.197 36.8664 22.877C36.8664 23.297 36.3564 23.577 35.8464 23.807C35.8164 24.547 35.8164 25.727 35.8464 27.037C36.3864 26.177 36.9964 25.377 37.3464 25.377C37.9264 25.377 39.4864 27.167 39.4864 27.807C39.4864 28.257 38.9064 28.447 38.3364 28.447H35.8364C35.8664 31.137 35.8964 33.917 35.8964 34.687C35.8964 35.677 35.4164 35.907 34.5864 35.907C33.8864 35.907 33.6864 35.327 33.6864 34.817V33.857H29.9764V39.297C29.9764 40.737 29.2764 41.827 27.8664 41.827C27.0064 41.827 27.0664 41.027 25.4064 40.127C24.7664 39.777 24.9564 39.067 25.5964 39.167C26.0764 39.227 26.7764 39.267 27.0064 39.267C27.5864 39.267 27.8364 39.077 27.9064 38.277C28.0064 36.937 28.0064 35.617 27.9664 33.857H23.2964C22.8764 33.857 22.5964 33.727 22.5964 33.217C22.5964 32.737 22.8864 32.577 23.2964 32.577H27.9664L27.9064 28.447H23.2364C22.8864 28.447 22.6264 28.347 22.5664 28.027C22.4064 28.317 21.9864 28.537 21.4764 28.767C21.4164 31.327 21.4764 35.517 21.4464 39.037C21.4464 40.957 20.1964 41.757 18.9164 41.757C17.6364 41.757 18.4064 40.607 17.0564 40.027C16.4164 39.737 16.4764 39.007 17.0864 39.007C17.3064 39.007 18.0464 39.067 18.3964 39.067C19.0364 39.067 19.2564 38.807 19.3264 38.047C19.3564 37.507 19.3564 36.797 19.3864 36.027H13.3064L13.3364 40.727C13.3364 41.427 12.8864 41.747 11.9564 41.747C11.4164 41.747 11.1264 41.427 11.1264 40.887C11.1564 38.267 11.3864 29.497 11.0264 26.107C10.9964 25.887 11.2164 25.657 11.4764 25.727C12.0164 25.787 13.5564 26.367 14.1964 26.947H18.7364C19.1864 26.367 19.7564 25.727 19.9864 25.727C20.6564 25.727 22.2264 27.007 22.5164 27.647C22.5764 27.297 22.8664 27.167 23.2164 27.167H27.8564C27.8564 25.377 27.7964 23.807 27.7964 23.227H23.8964C23.4764 23.227 23.1964 23.097 23.1964 22.587C23.1964 22.107 23.4864 21.947 23.8964 21.947H28.8264C29.9164 20.697 30.8464 19.197 31.4864 17.817H27.4264C26.4664 19.127 25.1864 20.507 23.6864 21.557C22.9164 22.137 22.3064 21.497 22.8864 20.787C25.1864 18.287 26.8564 15.607 27.4964 13.137C27.5964 12.787 27.7864 12.657 28.1364 12.717C29.2564 12.977 30.6964 13.707 30.6964 14.257C30.6964 14.677 30.3164 14.867 29.3564 14.867C29.0964 15.347 28.7464 15.887 28.3364 16.527H31.3764C31.9164 15.887 32.6564 15.087 33.0364 15.087C33.5764 15.087 35.2764 16.747 35.2764 17.517C35.2764 17.867 34.7664 18.097 34.0964 18.157C33.2664 19.217 32.2764 20.657 30.8664 21.937H33.3964L33.3864 21.947ZM13.3864 28.217C13.3564 28.797 13.3564 29.757 13.3264 30.777H19.4064V28.217H13.3864ZM19.4064 34.747V32.057H13.3264V34.747H19.4064ZM31.1764 23.227C31.1464 23.677 30.3464 23.867 29.9964 23.967C29.9964 24.897 29.9664 25.987 29.9664 27.167H33.7764C33.8064 25.537 33.8064 24.027 33.7764 23.227H31.1864H31.1764ZM33.7664 28.447H29.9564V32.577H33.7364L33.7664 28.447Z" fill="#282D30"/>
<path d="M36.1064 70.507C34.8864 71.147 33.4464 71.497 31.7264 71.787C31.9464 74.287 31.9464 76.717 31.5364 78.957C31.0264 81.807 29.9364 85.577 24.1464 87.147C23.4764 87.337 23.1564 86.607 23.7964 86.217C27.9264 83.787 29.1064 81.547 29.5564 77.837C29.8464 75.597 29.7764 73.677 29.6864 72.047C27.9264 72.207 25.9764 72.237 24.3764 72.237C23.4164 72.237 22.8764 72.687 22.3564 73.327C21.2964 74.667 18.0964 79.827 18.0964 81.457C18.0964 83.407 18.8964 84.177 18.4464 84.917C18.1564 85.397 17.1364 85.297 16.3964 84.597C14.6664 82.937 13.8364 80.307 13.8364 77.817C13.8364 73.657 15.3064 70.877 15.8864 67.127C16.2364 64.987 15.6964 64.567 14.6064 62.707C14.3464 62.257 14.6664 61.847 15.2764 62.067C17.8064 62.967 19.4364 65.167 18.3764 67.797C17.7364 69.397 15.7164 73.717 15.7164 76.757C15.7164 77.527 15.7764 78.357 15.9064 78.867C16.0364 79.347 16.3864 79.567 16.8664 78.897C18.0164 77.427 19.8064 74.317 21.1564 72.627C22.0564 71.477 22.5364 70.647 23.9064 70.577C25.5064 70.517 27.8464 70.317 29.5364 70.067C29.4064 68.467 29.0864 66.167 28.1264 65.077C27.3564 64.177 26.6264 63.827 26.6264 63.187C26.6264 62.767 26.9764 62.447 27.6864 62.447C29.8964 62.447 30.5364 63.057 30.8564 65.107C31.0164 66.067 31.1464 67.027 31.2764 67.987C31.6564 68.597 32.0764 68.787 32.6564 68.917C33.4564 69.077 34.7664 68.567 35.6364 68.567C36.9764 68.567 37.2964 69.907 36.1164 70.517L36.1064 70.507Z" fill="#282D30"/>
<path d="M31.2364 121.007C32.0064 122.317 32.4164 123.467 32.4164 124.497C32.4164 125.877 31.6164 126.447 30.7864 126.447C30.1764 126.447 29.3764 125.997 28.7664 125.677C27.4564 124.977 25.5064 124.017 22.5564 124.017C19.8364 124.017 17.4964 125.837 17.4964 127.597C17.4964 129.007 18.6164 129.647 20.4764 129.867C22.7464 130.157 24.7664 129.807 26.2964 129.807C27.5164 129.807 28.2764 129.937 28.2764 130.547C28.2764 131.287 27.2864 132.527 23.0964 132.527C19.6064 132.527 15.2864 131.467 15.2864 128.077C15.2864 125.227 18.6764 122.667 22.8064 122.667C25.7864 122.667 27.7064 123.177 28.8864 123.337C29.5564 123.437 29.6864 123.207 29.6864 122.887C29.6864 121.707 27.9264 119.107 26.1064 116.647C24.4064 117.097 22.4564 117.387 20.3164 117.387C16.7964 117.387 14.4264 115.117 13.7864 112.587C13.6264 111.947 14.1364 111.687 14.5864 112.007C16.0564 113.067 18.0464 115.307 21.4364 115.307C22.7464 115.307 23.8964 115.177 24.8964 114.987C23.6464 113.127 23.1064 111.757 23.1064 110.347C23.1064 109.447 23.5864 108.297 24.9664 108.297C25.9264 108.297 26.7564 108.907 27.7864 109.477C28.8764 110.087 30.1864 110.697 31.4364 111.137C32.3964 111.487 32.8764 111.807 32.8764 112.517C32.8764 113.097 32.3664 113.667 31.6564 114.177C30.7964 114.817 29.5164 115.517 27.9464 116.067C29.2864 117.987 30.3764 119.557 31.2464 120.997L31.2364 121.007ZM25.2264 110.797C25.2264 111.857 26.0564 113.387 26.7664 114.477C28.0764 113.997 28.8464 113.547 29.1664 113.257C29.6764 112.807 29.6764 112.397 29.1964 111.947C28.7464 111.527 27.1164 110.607 26.3164 110.187C25.5464 109.807 25.2264 110.057 25.2264 110.797Z" fill="#282D30"/>
<path d="M20.9063 154.477C22.3763 154.477 24.1663 155.377 24.1663 156.937C24.1663 158.117 23.1463 161.637 23.1463 163.687C23.1463 164.967 23.4363 165.637 24.3663 165.607C25.2963 165.577 25.9663 164.807 27.5663 164.777C28.8763 164.747 30.0263 165.317 30.0263 166.117C30.0263 167.107 28.8463 167.587 27.2063 167.717C26.3763 167.777 25.0663 167.817 24.0363 167.907C21.3763 168.167 19.2063 170.307 19.3363 173.187C19.4663 176.197 21.8363 176.677 24.6463 176.677C27.0463 176.677 28.7763 175.907 29.9563 175.907C31.0463 175.907 31.8463 176.387 31.8463 177.087C31.8463 178.687 28.1663 179.197 24.6463 179.197C21.5463 179.197 17.4163 178.077 17.2863 174.047C17.1863 170.467 19.0463 168.127 22.3063 166.557C21.5663 165.657 21.1563 165.147 21.1563 163.807C21.1563 162.307 21.3163 159.167 21.3163 157.947C21.3163 156.987 21.1563 156.607 20.6163 156.247C19.9463 155.827 19.4363 155.667 19.4363 155.257C19.4363 154.807 20.2663 154.457 20.9063 154.457V154.477Z" fill="#282D30"/>
<path d="M29.6462 206.927C29.6462 204.467 31.6662 202.447 34.1262 202.447C36.5862 202.447 38.6062 204.467 38.6062 206.927C38.6062 209.387 36.5862 211.407 34.1262 211.407C31.6662 211.407 29.6462 209.387 29.6462 206.927ZM37.0662 206.927C37.0662 205.297 35.7562 203.987 34.1262 203.987C32.4962 203.987 31.1862 205.297 31.1862 206.927C31.1862 208.557 32.4962 209.867 34.1262 209.867C35.7562 209.867 37.0662 208.557 37.0662 206.927Z" fill="#282D30"/>
</svg>
