<svg width="138" height="20" viewBox="0 0 138 20" fill="none" xmlns="http://www.w3.org/2000/svg">
<path d="M0 13.1773C0 9.07095 3.16842 6.38058 6.8958 6.38058C8.72908 6.38058 10.3973 7.07413 11.5384 8.15489L10.4552 9.37437C9.56608 8.57102 8.31493 8.07109 6.95083 8.07109C4.08651 8.07109 1.78115 10.1228 1.78115 13.1744C1.78115 16.226 4.0894 18.3066 6.95083 18.3066C8.31203 18.3066 9.53712 17.8067 10.4552 17.0033L11.5673 18.2228C10.4002 19.3325 8.73198 19.9971 6.8958 19.9971C3.17132 19.9971 0 17.2779 0 13.1744V13.1773Z" fill="white"/>
<path d="M24.4118 6.71291H26.1901V20H24.4118V16.9773C23.4677 18.7516 21.4635 20 19.1581 20C15.6277 20 12.6533 17.0322 12.6533 13.1773C12.6533 9.32236 15.5176 6.38058 19.2132 6.38058C21.4374 6.38058 23.4387 7.46135 24.4118 9.23855V6.71291ZM24.4118 13.2322C24.4118 10.2095 21.9645 8.07398 19.3522 8.07398C16.7398 8.07398 14.4026 10.4031 14.4026 13.1773C14.4026 15.9515 16.6269 18.3095 19.3782 18.3095C22.1296 18.3095 24.4118 16.1451 24.4118 13.2322Z" fill="white"/>
<path d="M29.9146 20V0H31.6928V20H29.9146Z" fill="white"/>
<path d="M56.1019 12.4549V20H54.3237V12.5387C54.3237 10.0419 52.8235 8.43231 50.6803 8.43231C48.233 8.40341 46.6227 9.9292 46.6227 13.3969V20H44.8705V12.5387C44.8705 10.013 43.3703 8.43231 41.3111 8.43231C39.252 8.43231 37.2246 9.70958 37.1696 12.8161V20H35.3914V7.04523H37.1696V9.34836C37.8097 7.62896 39.7009 6.71291 41.6181 6.71291C43.7034 6.71291 45.4556 7.82257 46.1767 9.81939C47.1788 7.26774 49.4291 6.71291 50.9583 6.71291C54.1007 6.71291 56.1019 8.87733 56.1019 12.4549Z" fill="white"/>
<path d="M64.7905 13.1773C64.7905 9.07095 67.9589 6.38058 71.6863 6.38058C73.5196 6.38058 75.1878 7.07413 76.3289 8.15489L75.2457 9.37437C74.3566 8.57102 73.1055 8.07109 71.7414 8.07109C68.877 8.07109 66.5717 10.1228 66.5717 13.1744C66.5717 16.226 68.8799 18.3066 71.7414 18.3066C73.1026 18.3066 74.3276 17.8067 75.2457 17.0033L76.3579 18.2228C75.1907 19.3325 73.5225 19.9971 71.6863 19.9971C67.9618 19.9971 64.7905 17.2779 64.7905 13.1744V13.1773Z" fill="white"/>
<path d="M77.4553 13.1773C77.4553 9.07095 80.5426 6.38058 84.2382 6.38058C87.9337 6.38058 91.05 9.07095 91.05 13.1773C91.05 17.2836 87.9366 20 84.2382 20C80.5397 20 77.4553 17.2807 77.4553 13.1773ZM89.2717 13.1773C89.2717 10.1257 86.9635 8.07398 84.2411 8.07398C81.5187 8.07398 79.2365 10.1257 79.2365 13.1773C79.2365 16.2289 81.4897 18.3095 84.2411 18.3095C86.9924 18.3095 89.2717 16.2289 89.2717 13.1773Z" fill="white"/>
<path d="M108.74 1.6934C106.293 1.6934 105.598 3.329 105.598 5.40962V7.04522H108.905V8.57102H105.598V20H103.819V8.57102H96.4804V20H94.7021V8.57102H92.1448V7.04522H94.7021V5.60324C94.7021 2.35804 95.9822 0 99.3736 0H100.596V1.6934H99.6227C97.1754 1.6934 96.4804 3.329 96.4804 5.40962V7.04522H103.819V5.60324C103.819 2.35804 105.099 0 108.491 0H109.713V1.6934H108.74Z" fill="white"/>
<path d="M122.836 13.9257H111.659C111.966 16.6999 113.913 18.3095 116.525 18.3095C118.303 18.3095 119.887 17.4484 120.75 16.0353L122.28 16.6999C121.139 18.7805 118.914 20 116.47 20C112.8 20 109.881 17.2547 109.881 13.1484C109.881 9.04205 112.8 6.38058 116.47 6.38058C120.139 6.38058 122.891 9.04205 122.891 13.1484C122.891 13.3969 122.862 13.6743 122.836 13.9257ZM121.11 12.3999C120.861 9.70958 118.998 8.07398 116.467 8.07398C113.936 8.07398 112.047 9.62867 111.685 12.3999H121.11Z" fill="white"/>
<path d="M137.945 13.9257H126.769C127.076 16.6999 129.022 18.3095 131.634 18.3095C133.413 18.3095 135 17.4484 135.86 16.0353L137.389 16.6999C136.248 18.7805 134.024 20 131.579 20C127.91 20 124.99 17.2547 124.99 13.1484C124.99 9.04205 127.91 6.38058 131.579 6.38058C135.249 6.38058 138 9.04205 138 13.1484C138 13.3969 137.971 13.6743 137.945 13.9257ZM136.222 12.3999C135.973 9.70958 134.111 8.07398 131.579 8.07398C129.048 8.07398 127.16 9.62867 126.798 12.3999H136.222Z" fill="white"/>
</svg>
