<svg width="250" height="38" viewBox="0 0 250 38" fill="none" xmlns="http://www.w3.org/2000/svg">
<path d="M3.64874 17.5174C4.37844 20.6262 3.09896 23.2851 1.46961 23.2851C0.969811 23.2851 0.5 22.9952 0.5 22.3455C0.5 21.3959 1.39964 21.166 1.9894 20.3763C2.67912 19.4267 2.69912 18.4271 2.67912 17.6474C2.65913 16.9577 3.51879 16.9976 3.64874 17.5174ZM6.56756 14.5386C8.01698 14.5386 8.97659 14.7685 8.97659 15.2483C8.97659 15.6482 8.53677 15.8581 7.88703 15.9581C7.84705 17.0076 7.82706 24.4546 7.82706 25.1044C7.82706 26.114 7.99699 26.4638 10.9758 26.4638C13.7447 26.4638 14.2045 26.044 14.4144 25.4542C14.6043 24.9344 14.7743 24.1148 14.8542 23.7149C14.9542 23.2151 15.6339 23.2751 15.6539 23.7549C15.6739 24.1148 15.6939 24.7845 15.7139 25.3043C15.7539 26.014 16.1937 26.144 16.1937 26.6038C16.1937 27.1036 15.2741 28.0132 11.0058 28.0132C6.7375 28.0132 6.2377 27.4035 6.2377 25.4742C6.2377 24.6346 6.33766 16.6778 6.10775 14.9585C6.06776 14.6486 6.20771 14.5186 6.54757 14.5186L6.56756 14.5386ZM8.41682 9.96046C9.86624 10.1904 11.9454 11.22 12.2353 12.5794C12.4052 13.2691 12.1053 13.8389 11.4156 13.9888C10.7059 14.1588 10.2861 13.4191 9.60634 12.5594C9.08655 11.7997 8.51678 11.2799 7.98699 10.7601C7.60715 10.3803 7.75709 9.8605 8.40682 9.96046H8.41682ZM16.4336 16.9676C17.7731 17.6174 19.6223 19.3567 19.5623 20.7661C19.5424 21.5058 19.1025 21.9856 18.4328 21.9456C17.6731 21.9257 17.4632 21.046 17.0234 19.9564C16.6235 18.9968 16.2437 18.2971 15.8238 17.6074C15.5739 17.1676 15.8438 16.6878 16.4336 16.9776V16.9676Z" fill="#282D30"/>
<path d="M35.706 20.4563C35.706 22.8653 34.3866 26.2439 32.1375 26.2439C31.0079 26.2439 29.7884 24.7945 29.3086 23.575C29.1887 23.2651 29.3886 22.9453 29.7884 23.2651C30.2682 23.645 31.0879 24.4846 31.9675 24.4846C33.4369 24.4846 34.3866 21.9057 34.3866 19.9765C34.3866 18.657 34.1767 17.3775 32.7472 17.3775C32.4374 17.3775 32.0175 17.4375 31.5277 17.5474C30.3682 20.3363 27.8592 25.0144 26.5697 26.5538C26.0899 27.1236 25.81 27.3135 25.3902 27.3135C24.9104 27.3135 24.7005 26.9337 24.7005 26.4938C24.7005 26.054 24.9504 25.6742 25.4801 25.0644C26.8596 23.4251 28.9188 20.4862 30.0783 17.9473C28.5889 18.3471 26.9496 18.8469 26.1499 18.8469C25.1203 18.8469 24.3606 17.7374 24.3606 16.7278C24.3606 16.248 24.6305 16.158 25.0303 16.4579C25.5801 16.8577 26.0199 17.2975 26.8396 17.2975C27.7192 17.2975 29.2086 16.9577 30.5581 16.7078C31.0879 15.2783 31.3178 14.3587 31.3178 13.8089C31.3178 13.3691 31.0479 13.1392 30.5881 12.8893C29.7684 12.4695 29.6685 12.3195 29.6685 12.1596C29.6685 11.8897 30.1983 11.6998 30.798 11.6998C31.8676 11.6998 33.257 12.3295 32.9971 13.3791C32.8072 14.1588 32.3874 15.3283 31.9675 16.4679C32.2574 16.4279 32.5373 16.4079 32.7672 16.4079C34.8664 16.4079 35.706 17.6674 35.706 20.4763V20.4563ZM42.2734 22.1556C42.2734 23.0552 41.8336 23.585 41.2238 23.585C40.6141 23.585 40.4241 23.1852 40.3442 21.4659C40.2342 19.5366 39.5045 18.3171 37.9551 17.4575C37.4953 17.2076 37.7452 16.7677 38.225 16.8277C40.704 17.1876 42.2734 19.4467 42.2734 22.1556ZM37.8852 13.8389C37.6353 13.589 37.7752 13.2492 38.1351 13.2691C39.5045 13.3691 40.9639 14.2987 40.9639 15.2883C40.9639 15.7681 40.6041 16.018 40.2542 16.018C39.7744 16.018 39.6245 15.6582 39.1447 15.0984C38.7848 14.6786 38.305 14.2388 37.8852 13.8389ZM42.7532 13.3191C42.7532 13.759 42.4833 14.0488 42.0635 14.0488C41.7536 14.0488 41.5437 13.8789 41.1439 13.4391C40.684 12.9393 40.0543 12.4695 39.5945 12.1396C39.2546 11.8897 39.4046 11.5298 39.8044 11.5298C41.1439 11.5498 42.7632 12.2396 42.7632 13.3191H42.7532Z" fill="#282D30"/>
<path d="M60.1961 13.1492C58.2869 13.3791 55.7079 13.9089 53.7687 15.3983C51.7795 16.9477 50.2001 19.6166 50.2001 21.6358C50.2001 24.8045 51.0198 26.194 51.0198 27.0736C51.0198 27.3935 50.8699 27.6234 50.3701 27.6234C49.0006 27.6234 48.5608 25.5042 48.5608 23.3851C48.5608 20.4863 49.8803 15.9781 49.8803 14.4287C49.8803 13.2792 49.5404 12.4395 49.1206 11.6798C48.8007 11.11 49.0606 10.8601 49.6004 11.09C50.3601 11.3999 51.4296 12.2696 51.4296 13.3991C51.4296 14.3187 50.8599 16.188 50.7199 16.9877C50.6599 17.2775 50.7199 17.3475 50.9098 17.0676C52.3593 14.9685 54.0986 13.689 56.0778 12.7394C57.2573 12.1696 59.0766 11.6498 60.526 11.6498C61.1157 11.6498 61.7055 11.8797 61.7055 12.4495C61.7055 12.8293 61.4356 13.0193 60.1961 13.1592V13.1492ZM60.8259 15.4383C61.3257 16.128 62.0654 15.8581 62.6351 15.9181C63.2449 15.9781 63.3049 16.2779 63.3049 16.5678C63.3049 17.2376 62.1054 17.8473 61.0358 18.2871C61.0958 19.2068 61.1357 20.1564 61.1357 20.7262C61.1357 21.2959 61.1357 21.9057 61.0958 22.6154C62.2453 23.0952 63.2349 23.8349 64.0346 24.6346C64.5644 25.1644 64.9142 25.8541 64.9142 26.3339C64.9142 26.8137 64.6843 27.1336 64.2845 27.1336C63.6947 27.1336 63.4448 26.7138 62.965 26.064C62.3952 25.2843 61.7055 24.5546 60.9058 23.9849C60.546 25.6842 59.5464 26.4639 57.6771 26.4639C56.4376 26.4639 55.0282 25.6842 55.0282 24.2847C55.0282 22.6054 56.7675 21.9957 57.967 21.9957C58.7267 21.9957 59.4164 22.1056 60.0662 22.2655C60.1062 21.7857 60.1261 21.4059 60.1261 20.8561C60.1261 20.2264 60.0862 19.4467 59.9962 18.697C59.0966 18.9869 58.087 19.1768 57.3972 19.1768C55.9478 19.1768 54.5384 18.3971 54.5384 16.9077C54.5384 16.3879 54.7683 16.2979 55.0882 16.5978C56.0778 17.5474 56.4276 18.0672 57.4572 18.0672C58.2169 18.0672 58.9666 17.8973 59.8063 17.4975C59.7663 17.2276 59.7063 16.9577 59.6163 16.7178C59.3664 15.9381 58.7967 15.4783 58.7967 15.1384C58.7967 14.9285 59.2365 14.4487 59.8662 14.4487C60.456 14.4487 60.7659 14.8285 60.8059 15.4083V15.4283L60.8259 15.4383ZM59.9262 23.3651C59.2765 23.0552 58.5868 22.8653 57.8671 22.8653C56.7375 22.8653 56.1078 23.3051 56.1078 23.9948C56.1078 24.7945 56.8675 25.0644 57.6571 25.0644C58.9366 25.0644 59.6263 24.5246 59.9262 23.3651Z" fill="#282D30"/>
<path d="M74.3102 10.8201C75.2698 10.8201 76.4493 11.4099 76.4493 12.4395C76.4493 13.2192 75.7796 15.5282 75.7796 16.8677C75.7796 17.7074 75.9695 18.1472 76.5793 18.1272C77.189 18.1072 77.6288 17.5974 78.6784 17.5774C79.5381 17.5574 80.2978 17.9373 80.2978 18.4571C80.2978 19.1068 79.5181 19.4167 78.4485 19.5066C77.8987 19.5466 77.0391 19.5666 76.3693 19.6366C74.63 19.8065 73.2006 21.206 73.2806 23.0952C73.3605 25.0644 74.9199 25.3843 76.7692 25.3843C78.3485 25.3843 79.4781 24.8845 80.2578 24.8845C80.9675 24.8845 81.4973 25.2044 81.4973 25.6642C81.4973 26.7137 79.0882 27.0536 76.7792 27.0536C74.74 27.0536 72.0311 26.3139 71.9511 23.675C71.8911 21.3259 73.1006 19.7965 75.2498 18.7669C74.77 18.1772 74.4901 17.8473 74.4901 16.9677C74.4901 15.9781 74.59 13.9289 74.59 13.1292C74.59 12.4995 74.4901 12.2496 74.1302 12.0196C73.6904 11.7498 73.3505 11.6398 73.3505 11.3699C73.3505 11.08 73.9003 10.8401 74.3202 10.8401L74.3102 10.8201ZM83.1666 17.3875C83.1666 17.8673 82.8067 18.1172 82.4569 18.1172C81.9771 18.1172 81.8271 17.7573 81.3473 17.1976C80.9875 16.7777 80.5077 16.3379 80.0878 15.9381C79.8379 15.6882 79.9779 15.3483 80.3377 15.3683C81.7072 15.4683 83.1666 16.3979 83.1666 17.3875ZM84.9459 15.4183C84.9459 15.8581 84.676 16.148 84.2562 16.148C83.9463 16.148 83.7364 15.9781 83.3365 15.5382C82.8767 15.0384 82.247 14.5686 81.7872 14.2388C81.4473 13.9889 81.5972 13.629 81.9971 13.629C83.3365 13.649 84.9559 14.3387 84.9559 15.4183H84.9459Z" fill="#282D30"/>
<path d="M105.228 16.5678C104.428 16.9876 103.489 17.2175 102.349 17.4075C102.499 19.0468 102.499 20.6362 102.219 22.1056C101.879 23.9748 101.17 26.4538 97.3711 27.4834C96.9312 27.6134 96.7213 27.1236 97.1412 26.8737C99.8501 25.2743 100.63 23.8049 100.92 21.3759C101.11 19.9065 101.07 18.647 101 17.5774C99.8501 17.6873 98.5606 17.7073 97.511 17.7073C96.8813 17.7073 96.5214 17.9972 96.1915 18.4171C95.5018 19.2967 93.4027 22.6753 93.4027 23.7449C93.4027 25.0244 93.9224 25.5342 93.6326 26.014C93.4426 26.3239 92.7729 26.2639 92.2931 25.8041C91.1635 24.7145 90.6138 22.9952 90.6138 21.3559C90.6138 18.627 91.5734 16.8077 91.9532 14.3487C92.1831 12.9393 91.8233 12.6694 91.1136 11.4499C90.9436 11.16 91.1536 10.8801 91.5534 11.03C93.2127 11.6198 94.2823 13.0692 93.5926 14.7885C93.1727 15.8381 91.8533 18.667 91.8533 20.6662C91.8533 21.166 91.8933 21.7157 91.9832 22.0456C92.0632 22.3555 92.3031 22.5054 92.613 22.0656C93.3727 21.096 94.5422 19.0668 95.4218 17.9472C96.0116 17.1875 96.3215 16.6478 97.2311 16.6078C98.2807 16.5678 99.8101 16.4378 100.93 16.2679C100.85 15.2183 100.64 13.7089 100.01 12.9892C99.5102 12.3995 99.0204 12.1696 99.0204 11.7497C99.0204 11.4798 99.2503 11.2699 99.7101 11.2699C101.16 11.2699 101.579 11.6698 101.789 13.0092C101.889 13.639 101.979 14.2687 102.059 14.8985C102.309 15.2983 102.579 15.4283 102.959 15.5082C103.479 15.6182 104.338 15.2783 104.908 15.2783C105.788 15.2783 105.998 16.158 105.228 16.5578V16.5678Z" fill="#282D30"/>
<path d="M123.701 22.5954C123.701 25.3443 121.312 26.8937 118.373 26.8937C116.583 26.8937 115.224 26.164 115.224 24.7146C115.224 23.515 116.174 22.8053 117.323 22.8053C118.813 22.8053 119.992 23.7749 120.262 25.2443C121.292 24.8245 122.131 23.9649 122.131 22.3055C122.131 20.6462 120.852 19.4067 119.092 19.4067C117.773 19.4067 116.893 19.8065 116.154 20.4163C115.044 21.3559 114.414 22.0956 113.865 22.5754C113.315 23.0352 112.775 23.0552 112.545 22.5754C112.315 22.1356 112.485 21.5458 113.115 20.9161C114.014 20.0564 116.074 18.547 117.203 17.5774C118.443 16.4879 120.012 14.9985 120.582 13.9689C120.832 13.529 120.662 13.2991 120.332 13.2991C119.112 13.2991 115.694 15.6682 114.604 15.6682C113.575 15.6682 112.485 14.4087 112.485 13.3991C112.485 12.8993 112.735 12.7693 113.095 13.0392C113.515 13.3791 114.144 13.8789 114.624 13.8789C115.384 13.8789 117.353 13.1692 119.012 12.6194C119.642 12.3895 120.122 12.2396 120.612 12.2396C121.701 12.2396 122.861 13.3691 122.861 14.0688C122.861 14.6786 121.871 15.2184 121.282 15.6882C119.832 16.7777 118.663 17.7474 117.523 18.727C121.012 18.0372 123.711 19.7565 123.711 22.5854L123.701 22.5954ZM118.723 25.5742C118.643 24.3347 118.033 23.665 117.173 23.665C116.563 23.665 116.204 23.9748 116.184 24.5246C116.164 25.2343 117.083 25.5942 118.073 25.5942C118.283 25.5942 118.513 25.5942 118.723 25.5742Z" fill="#282D30"/>
<path d="M135.036 25.1144C135.916 24.8845 136.715 24.6546 137.385 24.4247C138.185 24.1948 138.395 24.7646 137.675 25.1844C136.286 25.9441 134.316 26.6338 131.887 27.2836C131.827 27.8133 131.637 28.2732 131.298 28.2732C130.858 28.2732 130.518 27.4535 130.328 26.3239C130.308 26.134 130.388 26.074 130.558 26.0541C131.687 25.8841 132.737 25.6742 133.707 25.4643V19.7366H131.148C130.878 19.7366 130.688 19.6566 130.688 19.3168C130.688 19.0069 130.878 18.8969 131.148 18.8969H133.707V16.6278H132.467C132.197 16.6278 132.007 16.5479 132.007 16.208V16.128C131.457 16.7778 130.878 17.3875 130.198 17.9173C129.778 18.2972 129.298 17.8773 129.648 17.4575C131.617 15.0685 133.087 12.3396 133.617 9.88055C133.637 9.67063 133.767 9.61066 133.956 9.61066C134.776 9.71062 135.806 10.0505 135.806 10.3704C135.806 10.5803 135.576 10.6802 135.196 10.6802L135.176 10.7202C135.886 11.0401 136.455 11.33 136.895 11.6398C137.545 12.0597 137.925 12.4595 138.075 12.9593C138.245 13.4991 138.015 13.9889 137.505 14.0689C136.915 14.1788 136.585 13.3592 136.036 12.6594C135.676 12.2396 135.296 11.8797 134.836 11.5099C134.286 12.7694 133.427 14.3687 132.257 15.8082C132.317 15.7882 132.387 15.7882 132.467 15.7882H135.556C135.916 15.2184 136.315 14.6786 136.545 14.6786C136.925 14.6786 137.935 15.8082 137.955 16.208C137.955 16.5179 137.555 16.6278 137.195 16.6278H135.436C135.396 16.7778 135.266 16.8777 135.036 16.9677V18.8969H135.796C136.156 18.3272 136.555 17.7874 136.785 17.7874C137.165 17.7874 138.165 18.9169 138.195 19.3168C138.195 19.6266 137.795 19.7366 137.435 19.7366H135.046V25.1344L135.036 25.1144ZM131.427 22.9753C131.367 22.5954 131.258 22.1756 131.158 21.7758C131.028 21.3359 131.367 21.0461 131.807 21.3759C132.607 22.0257 133.297 22.8853 133.047 23.665C132.897 24.1248 132.477 24.3547 131.977 24.2048C131.537 24.0549 131.517 23.5551 131.427 22.9653V22.9753ZM138.095 21.9457C138.115 22.2156 137.865 22.3455 137.275 22.3256C136.955 22.8653 136.665 23.3551 136.226 23.8749C135.826 24.2748 135.426 24.0249 135.576 23.5351C135.806 22.8054 135.996 22.0657 136.106 21.206C136.126 21.0161 136.256 20.8661 136.445 20.9161C137.155 21.106 138.085 21.6258 138.105 21.9457H138.095ZM145.302 22.1056C146.292 23.8449 147.821 25.1444 149.73 25.7342C150.25 25.9041 150.15 26.134 149.75 26.284C149.41 26.4039 149.31 26.5339 149.1 26.7838C148.81 27.1236 148.601 27.1636 148.181 26.9037C146.561 25.8541 145.532 24.4647 144.902 22.9753C144.922 25.5942 144.962 27.1736 144.962 27.7834C144.962 28.2232 144.672 28.5431 144.042 28.5431C143.663 28.5431 143.523 28.3131 143.523 27.9133C143.523 27.1836 143.583 25.3343 143.603 22.0956H142.053C142.073 25.2644 142.133 27.1136 142.133 27.7834C142.133 28.2232 141.843 28.5431 141.214 28.5431C140.834 28.5431 140.684 28.3131 140.684 27.9133C140.684 27.3835 140.704 26.294 140.744 24.5347C139.754 25.8141 138.265 27.0337 136.336 27.7634C135.766 27.9733 135.476 27.4035 135.996 27.1136C138.345 25.8541 140.004 23.795 140.634 22.0956H138.785C138.515 22.0956 138.325 22.0157 138.325 21.6758C138.325 21.3659 138.515 21.256 138.785 21.256H140.754V19.3268H138.595C138.325 19.3268 138.135 19.2468 138.135 18.9069C138.135 18.597 138.325 18.4871 138.595 18.4871H140.754V16.4979H138.844C138.575 16.4979 138.385 16.4179 138.385 16.0781C138.385 15.7682 138.575 15.6582 138.844 15.6582H140.754V13.619H138.824C138.555 13.619 138.365 13.5391 138.365 13.1992C138.365 12.8893 138.555 12.7794 138.824 12.7794H143.992C143.932 12.6794 143.932 12.5095 144.012 12.3196C144.352 11.5399 144.602 10.7702 144.772 9.80058C144.812 9.61066 144.942 9.46072 145.172 9.53069C145.932 9.7406 147.001 10.3504 147.001 10.6802C147.001 10.9701 146.751 11.1001 146.102 11.1001C145.722 11.7098 145.302 12.2296 144.672 12.7594L144.652 12.7794H146.791C147.191 12.2096 147.651 11.5799 147.921 11.5799C148.301 11.5799 149.54 12.7294 149.54 13.1792C149.54 13.4691 149.18 13.619 148.591 13.619H145.462C145.422 13.789 145.232 13.8889 144.892 13.9389V15.6582H146.092C146.361 15.2584 146.721 14.8186 146.951 14.8186C147.311 14.8186 148.421 15.6582 148.421 16.098C148.421 16.3679 148.111 16.5379 147.771 16.6678V18.4971H147.811C148.131 18.0173 148.481 17.5575 148.691 17.5575C149.03 17.5575 149.99 18.5871 149.99 18.9669C150.01 19.2568 149.72 19.3467 149.28 19.3467H147.771L147.791 22.0557C147.791 22.7054 147.501 22.8553 146.971 22.8553C146.511 22.8553 146.401 22.4755 146.401 22.1456V22.1256H145.292L145.302 22.1056ZM139.774 10.4203C139.564 9.98051 139.814 9.60066 140.364 9.83057C141.264 10.2304 142.173 10.8202 142.063 11.6598C142.003 12.1996 141.603 12.5395 141.014 12.4595C140.514 12.4195 140.404 11.9197 140.234 11.4099C140.104 11.1001 139.944 10.7402 139.774 10.4203ZM142.043 18.4971H143.593V16.5079H142.063L142.043 18.4971ZM143.603 21.266V19.3367H142.053V21.266H143.603ZM142.063 15.6682H143.593V13.629H142.623C142.583 13.799 142.393 13.8989 142.053 13.9489V15.6682H142.063ZM144.902 16.5079L144.882 18.4971H146.461V16.5079H144.912H144.902ZM146.431 19.3367H144.882V21.266H146.411L146.431 19.3367Z" fill="#282D30"/>
<path d="M172.331 15.0184C171.831 15.2284 171.661 15.3983 171.472 15.6482C171.162 16.068 171.012 16.198 170.462 16.048C168.173 15.3783 165.274 13.719 163.365 10.9301C161.166 13.8089 157.677 16.2779 153.919 17.8773C153.309 18.1072 153.059 17.4575 153.609 17.1676C156.927 15.2384 159.966 13.0093 162.145 9.4207C162.295 9.21078 162.395 9.1708 162.625 9.21078C163.425 9.38071 164.414 9.82054 164.414 10.1804C164.414 10.3503 164.264 10.4303 164.015 10.4703C166.074 12.7194 169.262 13.8289 172.221 14.3787C172.871 14.4787 172.751 14.8785 172.331 15.0284V15.0184ZM167.253 23.4351C167.503 23.0952 167.803 22.8053 167.993 22.8053C168.413 22.8053 169.632 23.705 169.632 24.1748C169.632 24.4447 169.272 24.6146 168.923 24.7645C168.903 25.6842 168.923 27.1736 168.923 27.7034C168.923 28.3531 168.603 28.503 168.043 28.503C167.563 28.503 167.413 28.1232 167.413 27.7933V27.5634H160.176V28.0032C160.176 28.4431 159.836 28.633 159.226 28.633C158.867 28.633 158.677 28.4431 158.677 28.0832C158.677 27.0336 158.737 25.1644 158.637 23.615C157.927 25.2343 156.707 26.6138 154.798 27.6834C154.248 27.9333 153.899 27.4734 154.418 27.0536C156.727 25.2244 157.927 23.2152 157.987 19.6666C157.987 18.3271 157.967 17.1076 157.837 16.158C157.797 15.9081 157.897 15.7781 158.177 15.8181C158.447 15.8581 159.226 16.198 159.726 16.5278H166.504C166.793 16.148 167.153 15.7482 167.363 15.7482C167.763 15.7482 168.933 16.6278 168.933 17.0876C168.933 17.3575 168.593 17.5474 168.243 17.6774C168.223 18.8069 168.263 21.076 168.263 21.6658C168.263 22.3155 167.953 22.4855 167.383 22.4855C166.903 22.4855 166.773 22.1256 166.773 21.7957H159.216C159.136 22.1556 159.047 22.4855 158.927 22.8253C159.286 22.8853 159.956 23.1352 160.436 23.4351H167.253ZM159.466 19.6366C159.446 20.0764 159.426 20.5162 159.356 20.9561H166.763L166.783 19.5766H159.456V19.6366H159.466ZM159.576 17.3675L159.496 17.3875C159.516 17.7673 159.516 18.1672 159.496 18.727H166.823V17.3575H159.586L159.576 17.3675ZM160.416 15.2883C160.146 15.2883 159.956 15.2084 159.956 14.8685C159.956 14.5486 160.146 14.4487 160.416 14.4487H163.735C164.114 13.8589 164.574 13.2492 164.824 13.2492C165.204 13.2492 166.404 14.4287 166.404 14.8485C166.404 15.1584 166.004 15.2883 165.524 15.2883H160.426H160.416ZM167.423 26.7038C167.423 25.8841 167.443 24.8345 167.443 24.2647H160.666C160.516 24.3247 160.346 24.3647 160.186 24.3847C160.166 24.7445 160.166 25.6842 160.166 26.044V26.6938H167.423V26.7038Z" fill="#282D30"/>
<path d="M192.003 20.1564C192.003 24.1848 188.774 26.264 184.446 26.264C183.706 26.264 183.666 25.6142 184.316 25.4843C187.945 24.7746 190.294 23.2352 190.294 19.7966C190.294 17.5475 189.164 15.6782 187.045 14.7986C186.985 15.5983 186.775 16.5179 186.455 17.3775C185.236 20.7362 181.737 24.9145 179.218 24.9145C178.109 24.9145 177.009 23.3851 176.829 20.9061C176.619 18.2572 177.649 16.308 179.038 15.0685C180.278 13.9789 182.187 13.1992 184.176 13.1992C189.194 13.1992 192.003 16.3679 192.003 20.1464V20.1564ZM185.876 14.4287C185.326 14.3188 184.746 14.2588 184.116 14.2588C182.307 14.2588 180.888 14.8486 179.858 15.8082C178.748 16.8577 178.079 18.3472 178.199 20.4263C178.309 22.0457 178.868 23.0253 179.478 23.0253C181.497 23.0253 184.516 18.9369 185.506 16.118C185.716 15.5483 185.846 14.9385 185.886 14.4187L185.876 14.4287Z" fill="#282D30"/>
<path d="M212.595 18.517C213.134 17.7173 213.834 16.7777 214.274 16.7777C214.864 16.7777 216.603 18.2871 216.603 18.8569C216.603 19.1668 216.203 19.3567 215.134 19.3567H198.28C198.01 19.3567 197.821 19.2767 197.821 18.9368C197.821 18.627 198.01 18.517 198.28 18.517H212.595Z" fill="#282D30"/>
<path d="M225.26 18.797C225.26 20.2664 225.34 26.9137 225.34 27.8034C225.34 28.2832 225.05 28.563 224.37 28.563C223.97 28.563 223.74 28.3331 223.74 27.9333C223.74 26.9837 223.95 20.7362 223.95 19.2268V19.2068C223.111 20.7162 222.001 22.1856 220.701 23.2352C220.162 23.655 219.692 23.2552 220.132 22.6954C221.831 20.6562 223.22 18.2072 223.72 15.5983H220.971C220.701 15.5983 220.512 15.5183 220.512 15.1784C220.512 14.8685 220.701 14.7586 220.971 14.7586H223.93C223.91 12.9093 223.82 11.0001 223.66 9.99051C223.64 9.80058 223.74 9.70062 223.93 9.70062C225.27 9.70062 226.369 9.83057 226.369 10.3304C226.369 10.6902 225.949 10.9201 225.3 11.0401C225.28 11.7298 225.28 13.2492 225.26 14.7586H225.759C226.159 14.1288 226.659 13.4591 226.939 13.4591C227.359 13.4591 228.598 14.6786 228.618 15.1384C228.618 15.4483 228.198 15.5983 227.669 15.5983H225.26V18.807V18.797ZM226.539 18.9669C226.349 18.5871 226.079 18.1872 225.849 17.8374C225.6 17.4575 225.809 17.0577 226.329 17.2476C227.379 17.5875 228.388 18.2572 228.388 19.1168C228.388 19.6666 228.049 20.0165 227.509 20.0165C227.009 20.0165 226.819 19.5567 226.549 18.9669H226.539ZM236.175 12.5395C236.235 12.5995 236.285 12.6894 236.285 12.7494C236.285 13.0593 235.945 13.1892 235.296 13.2492C234.816 14.3388 234.226 15.4683 233.536 16.5879C234.166 16.8378 234.946 17.2376 234.946 17.5575C234.946 17.8274 234.566 17.9773 234.126 18.0373C234.066 18.9369 234.066 21.8757 234.066 22.4855L234.086 27.8633C234.086 28.3231 233.776 28.5531 233.136 28.5531C232.737 28.5531 232.547 28.3431 232.547 27.9633C232.547 26.3439 232.697 21.0361 232.547 18.0173C231.287 19.6766 229.668 21.226 227.529 22.4055C226.939 22.6954 226.609 22.1956 227.109 21.7758C230.358 19.1568 232.587 16.128 233.616 12.5395H227.759C227.489 12.5395 227.299 12.4595 227.299 12.1197C227.299 11.8098 227.489 11.6998 227.759 11.6998H236.425C236.885 11.0301 237.495 10.2304 237.835 10.2304C238.254 10.2304 239.834 11.5099 239.834 12.0597C239.834 12.3496 239.434 12.5395 238.634 12.5395H236.175ZM239.194 21.5659C238.524 21.6858 238.144 20.9361 237.535 20.0765C236.965 19.2768 236.465 18.777 235.955 18.2472C235.635 17.9373 235.785 17.4475 236.355 17.5975C237.615 17.9573 239.564 19.1668 239.814 20.3663C239.944 20.9761 239.714 21.4359 239.184 21.5659H239.194Z" fill="#282D30"/>
<path d="M243.622 25.8641C243.622 24.2448 244.942 22.9253 246.561 22.9253C248.18 22.9253 249.5 24.2448 249.5 25.8641C249.5 27.4835 248.18 28.8029 246.561 28.8029C244.942 28.8029 243.622 27.4835 243.622 25.8641ZM248.49 25.8641C248.49 24.7945 247.631 23.9349 246.561 23.9349C245.492 23.9349 244.632 24.7945 244.632 25.8641C244.632 26.9337 245.492 27.7933 246.561 27.7933C247.631 27.7933 248.49 26.9337 248.49 25.8641Z" fill="#282D30"/>
</svg>
